<?xml version="1.0" encoding="utf-8"?>
<!-- Generator: Adobe Illustrator 25.2.0, SVG Export Plug-In . SVG Version: 6.00 Build 0)  -->
<svg version="1.1" id="Layer_1" xmlns="http://www.w3.org/2000/svg" xmlns:xlink="http://www.w3.org/1999/xlink" x="0px" y="0px"
	 viewBox="0 0 485 485" style="enable-background:new 0 0 485 485;" xml:space="preserve">
<style type="text/css">
	.st0{fill:#FFFFFF;}
</style>
<g>
	<path class="st0" d="M414,71C368.2,25.2,307.3,0,242.5,0S116.8,25.2,71,71C25.2,116.8,0,177.7,0,242.5S25.2,368.2,71,414
		c45.8,45.8,106.7,71,171.5,71s125.7-25.2,171.5-71c45.8-45.8,71-106.7,71-171.5S459.8,116.8,414,71z M242.5,455
		C125.3,455,30,359.7,30,242.5S125.3,30,242.5,30S455,125.3,455,242.5S359.7,455,242.5,455z"/>
	<path class="st0" d="M318.5,231.5c19.3,0,35-15.7,35-35s-15.7-35-35-35s-35,15.7-35,35S299.2,231.5,318.5,231.5z"/>
	<path class="st0" d="M166.5,231.5c19.3,0,35-15.7,35-35s-15.7-35-35-35s-35,15.7-35,35S147.2,231.5,166.5,231.5z"/>
	<path class="st0" d="M242.5,355c-46.9,0-89.4-29.6-105.6-73.7l-28.1,10.4c20.6,55.8,74.3,93.3,133.8,93.3s113.2-37.5,133.8-93.3
		l-28.1-10.4C331.9,325.4,289.4,355,242.5,355z"/>
</g>
</svg>
